<?xml version="1.0" standalone="no"?>
<!DOCTYPE svg PUBLIC "-//W3C//DTD SVG 20010904//EN"
 "http://www.w3.org/TR/2001/REC-SVG-20010904/DTD/svg10.dtd">
<svg version="1.0" xmlns="http://www.w3.org/2000/svg"
 width="1280.000000pt" height="1215.000000pt" viewBox="0 0 1280.000000 1215.000000"
 preserveAspectRatio="xMidYMid meet">
<metadata>
Created by potrace 1.15, written by Peter Selinger 2001-2017
</metadata>
<g transform="translate(0.000000,1215.000000) scale(0.100000,-0.100000)"
fill="#000000" stroke="none">
<path d="M11893 12129 c-23 -11 -51 -35 -62 -52 -53 -88 -117 -340 -94 -375 9
-14 -1 -24 -62 -63 -114 -74 -153 -143 -120 -213 9 -19 32 -47 51 -61 59 -45
42 -77 -78 -143 -139 -76 -274 -213 -345 -348 -21 -40 -35 -54 -69 -68 -54
-22 -94 -62 -94 -93 0 -15 18 -41 54 -76 45 -44 56 -61 68 -113 l15 -61 -84
-17 c-99 -19 -195 -54 -278 -101 -108 -60 -141 -89 -174 -156 -53 -106 -41
-161 57 -261 l55 -57 -34 -20 c-19 -12 -72 -35 -119 -52 -47 -16 -95 -37 -107
-45 -33 -21 -192 -62 -308 -78 -55 -8 -183 -20 -285 -26 -186 -10 -371 -23
-595 -40 -66 -5 -318 -16 -560 -25 -242 -8 -478 -20 -525 -25 -47 -6 -152 -15
-235 -19 -82 -5 -197 -19 -255 -31 -139 -29 -351 -100 -476 -159 l-101 -48
-61 23 c-177 66 -374 85 -834 77 -284 -5 -351 -3 -453 12 -66 10 -203 21 -305
25 -202 9 -437 33 -770 79 -501 70 -691 81 -955 56 -172 -16 -188 -19 -344
-72 -162 -56 -163 -56 -250 -49 -47 3 -186 27 -309 51 -164 34 -273 49 -415
60 -166 13 -307 32 -307 40 0 2 15 26 34 54 86 127 62 301 -52 375 -68 45
-287 97 -465 112 -69 5 -84 10 -83 23 0 9 -8 20 -20 25 -21 9 -20 10 12 42 21
22 36 49 41 76 5 24 14 44 21 44 7 1 16 2 22 3 5 0 14 10 20 22 9 15 8 24 -2
36 -11 14 -33 15 -165 9 -344 -15 -681 -75 -960 -170 -57 -19 -105 -31 -107
-27 -10 15 25 50 81 80 49 27 95 37 350 81 349 59 573 108 580 127 9 24 -47
121 -88 154 -77 61 -219 102 -219 64 0 -8 5 -15 10 -15 6 0 10 -10 10 -23 0
-13 12 -34 26 -48 39 -37 47 -57 35 -88 -20 -47 -55 -58 -238 -78 -56 -6 -62
-1 -38 31 32 43 21 49 -70 44 -78 -5 -102 0 -75 17 6 4 38 11 72 15 56 8 77
20 78 44 0 5 -37 6 -85 2 -53 -4 -85 -2 -85 4 0 17 43 39 90 46 52 7 90 28 90
49 0 17 -27 19 -82 6 -30 -7 -38 -6 -38 5 0 7 16 16 38 19 60 11 72 16 72 30
0 22 44 30 175 30 118 0 121 -1 185 -35 83 -45 194 -150 245 -233 35 -57 46
-67 83 -78 59 -16 92 -44 92 -77 -1 -43 -35 -107 -74 -138 -44 -35 -46 -54 -7
-54 61 0 171 154 157 221 -10 52 -35 78 -90 94 -49 15 -52 18 -80 78 -41 89
-165 210 -268 260 l-76 38 14 27 c20 39 18 126 -5 171 -26 51 -91 107 -141
122 -28 8 -42 19 -44 33 -37 200 -75 301 -142 383 -28 34 -42 43 -67 43 -73 0
-128 -70 -147 -186 -16 -95 -14 -214 4 -263 23 -62 20 -75 -19 -105 -95 -73
-108 -227 -24 -287 l29 -20 -58 -69 c-80 -95 -154 -224 -187 -324 -25 -76 -32
-88 -68 -112 -62 -41 -87 -72 -87 -111 0 -32 4 -36 55 -58 42 -19 59 -33 72
-60 13 -28 31 -42 75 -63 32 -14 58 -29 58 -32 0 -3 -46 -21 -102 -39 -257
-84 -403 -184 -473 -324 -30 -60 -31 -107 -6 -163 40 -88 134 -153 236 -163
l60 -6 8 -65 c5 -36 17 -104 28 -152 10 -48 19 -103 19 -123 0 -20 7 -50 16
-66 21 -42 39 -141 64 -359 20 -175 70 -487 161 -1000 22 -124 44 -269 49
-323 5 -54 16 -112 25 -129 8 -17 15 -46 15 -65 0 -19 5 -44 12 -56 7 -12 13
-60 14 -107 1 -55 10 -108 23 -150 20 -61 62 -338 80 -535 5 -50 19 -116 32
-150 16 -41 22 -76 20 -110 -1 -32 7 -83 23 -139 14 -48 26 -106 26 -127 0
-69 30 -269 81 -538 27 -146 72 -396 100 -556 27 -159 59 -332 69 -384 11 -52
20 -126 20 -165 0 -41 10 -114 24 -171 13 -55 31 -158 40 -230 9 -71 25 -166
36 -210 27 -107 61 -424 54 -492 -5 -41 -3 -58 11 -79 14 -22 17 -54 18 -200
2 -189 4 -193 55 -153 33 25 180 113 242 145 79 41 358 125 433 131 50 5 76
12 90 26 53 53 -54 46 -332 -23 -89 -22 -177 -40 -196 -40 -18 0 -46 -5 -61
-10 -15 -6 -34 -8 -43 -5 -11 4 6 19 54 47 119 69 191 99 277 114 46 8 105 22
132 30 35 12 67 15 113 11 55 -6 66 -4 84 14 31 31 18 43 -57 52 -38 4 -73 9
-79 11 -5 2 -23 -3 -39 -12 -43 -21 -75 -30 -233 -61 -77 -16 -153 -26 -167
-24 -14 3 -44 -2 -67 -11 -23 -9 -44 -15 -47 -12 -11 12 24 37 115 81 110 54
266 97 426 116 88 10 110 17 118 32 19 35 5 47 -53 41 -199 -21 -447 -67 -530
-99 -13 -5 -17 0 -20 22 -4 36 -31 33 -69 -8 -32 -35 -52 -37 -47 -7 3 25 17
33 138 78 269 101 270 101 350 96 41 -3 93 -8 116 -12 30 -4 43 -2 53 10 18
22 6 46 -22 46 -14 0 -57 7 -97 16 -105 24 -151 15 -440 -84 -9 -3 -7 4 8 20
45 50 21 51 -49 3 -52 -36 -84 -45 -77 -22 6 18 172 103 258 131 41 13 134 34
205 46 72 11 134 25 139 30 5 6 4 16 -5 26 -27 33 -284 -1 -461 -62 l-72 -24
32 33 c36 37 41 57 15 58 -41 2 91 51 212 79 199 46 215 51 226 73 8 14 8 22
-2 27 -17 11 -57 4 -254 -42 -140 -33 -175 -38 -199 -30 -21 9 -38 8 -70 -3
-59 -21 -86 -19 -86 5 0 16 16 28 66 50 109 49 262 98 381 121 111 22 113 22
148 3 33 -18 36 -18 52 -1 17 17 17 19 -10 42 -72 64 -196 58 -439 -19 -27 -8
-48 -11 -48 -7 0 5 7 11 15 15 20 7 19 26 0 26 -9 0 -48 -11 -87 -25 -91 -32
-110 -32 -106 -3 2 18 22 31 103 64 109 44 256 88 350 104 101 18 105 19 105
40 0 44 -230 17 -452 -54 -115 -36 -144 -35 -54 3 54 22 75 46 58 63 -6 6 -26
1 -50 -11 -44 -22 -72 -27 -72 -12 0 13 218 98 324 125 51 14 121 28 154 32
61 6 90 23 77 44 -11 17 -103 11 -255 -19 -104 -20 -151 -25 -167 -18 -15 7
-35 5 -69 -7 -76 -26 -104 -19 -104 25 0 26 298 130 427 150 67 10 90 10 122
-1 34 -11 43 -10 77 6 48 24 64 48 44 68 -13 13 -20 13 -57 -4 -35 -16 -57
-18 -130 -13 -73 4 -107 1 -203 -21 -183 -43 -166 -42 -146 -11 13 19 15 30 7
38 -7 7 -27 -1 -67 -27 -54 -36 -84 -41 -84 -13 0 20 102 72 185 95 39 11 115
27 170 36 147 25 145 25 145 45 0 35 -82 34 -299 -4 -108 -19 -234 -20 -229
-2 10 30 349 123 503 137 104 10 155 27 155 51 0 5 -7 12 -16 16 -24 9 -240
-14 -384 -42 -70 -13 -131 -20 -140 -15 -8 4 -37 2 -65 -6 -80 -21 -105 -19
-105 10 0 30 33 55 132 100 142 65 296 94 393 76 59 -11 67 -10 97 7 41 24 46
59 8 55 -14 -1 -106 -4 -205 -6 -161 -3 -192 -6 -298 -33 -65 -17 -117 -27
-115 -22 6 15 133 121 158 131 14 5 59 16 100 24 189 35 220 44 220 65 0 13
-7 19 -21 19 -47 0 -385 -53 -445 -69 -67 -19 -74 -18 -74 10 0 12 22 29 68
51 54 27 66 37 64 54 -3 20 8 23 167 49 189 31 296 62 296 85 0 19 -44 16 -64
-4 -10 -11 -20 -12 -42 -4 -35 12 -317 -23 -427 -52 -40 -11 -77 -20 -83 -20
-22 0 5 21 61 50 32 16 71 45 86 63 38 45 105 66 253 81 92 9 116 15 119 27 4
22 -26 29 -120 29 -96 0 -204 -20 -316 -60 -110 -39 -116 -40 -120 -13 -2 16
8 30 38 52 63 46 138 70 315 103 165 30 199 44 175 72 -19 24 -58 21 -394 -38
-116 -21 -151 -24 -157 -14 -10 15 6 35 34 44 12 3 51 21 87 39 87 44 175 73
285 94 75 15 90 21 90 36 0 26 -31 33 -147 34 -81 1 -121 -5 -234 -34 -87 -22
-141 -32 -147 -26 -19 19 2 39 55 51 80 19 127 40 139 62 15 28 8 30 -45 12
-68 -23 -67 -11 1 15 32 11 119 30 193 41 166 25 166 25 149 47 -23 26 -243
12 -387 -25 -61 -16 -112 -28 -112 -26 0 1 24 15 53 32 29 16 79 52 112 79 71
59 86 64 230 72 92 5 110 9 113 23 10 51 -327 31 -502 -31 -44 -15 -56 -16
-60 -6 -8 21 17 35 86 51 48 11 72 24 103 53 63 61 98 74 208 79 73 3 97 8 97
18 0 42 -140 46 -315 8 -170 -36 -196 -39 -205 -24 -17 28 3 49 71 74 119 44
230 68 344 75 87 5 110 9 110 21 0 54 -155 49 -510 -16 -28 -5 -29 -4 -12 9
10 8 38 18 63 22 41 6 93 39 81 52 -3 3 -30 -2 -60 -11 -62 -18 -106 -21 -91
-7 26 27 252 75 446 96 59 7 81 21 57 36 -35 22 -292 4 -467 -32 -96 -19 -112
-19 -112 7 0 10 12 14 38 14 80 0 172 43 172 80 0 30 37 43 142 48 111 5 131
16 104 56 -31 49 -161 47 -320 -4 -51 -17 -98 -30 -104 -30 -6 0 -18 13 -27
29 l-15 29 73 26 c99 35 176 53 287 67 104 13 120 20 100 44 -20 24 -106 19
-292 -17 -92 -17 -171 -29 -174 -25 -13 12 16 34 62 47 26 8 52 23 61 36 8 13
34 32 57 44 37 17 62 20 187 20 99 0 149 4 157 12 14 14 16 44 3 52 -11 7
-330 -20 -411 -35 -30 -5 -80 -16 -110 -24 -30 -8 -56 -12 -59 -10 -8 9 72 76
121 101 28 14 84 34 126 45 66 17 95 19 203 13 132 -7 169 -2 169 22 0 23 -61
56 -90 48 -14 -3 -83 -10 -155 -14 -88 -6 -171 -18 -255 -39 -129 -32 -160
-36 -160 -23 0 7 50 40 83 54 10 4 38 22 61 38 64 47 153 70 294 77 135 7 152
15 136 60 -12 35 -41 53 -54 33 -5 -8 -11 -19 -13 -24 -1 -4 -67 -14 -146 -22
-171 -16 -236 -28 -313 -59 -54 -22 -57 -22 -73 -5 -15 17 -12 20 57 63 154
96 291 147 396 147 50 0 53 2 50 23 -3 21 -7 22 -78 19 -92 -4 -170 -20 -319
-66 -122 -38 -141 -36 -141 9 0 20 6 23 51 27 39 4 57 12 83 37 35 34 183 91
289 112 59 12 82 33 56 50 -17 11 -22 10 -261 -47 -207 -49 -226 -51 -235 -28
-7 19 9 30 56 39 56 10 117 43 129 70 15 31 31 38 183 70 68 14 129 31 136 37
69 57 -191 27 -414 -48 -112 -37 -131 -36 -119 10 5 19 16 28 44 35 20 6 75
33 122 61 91 54 134 70 190 70 42 0 65 13 55 30 -15 24 -150 5 -290 -39 -153
-48 -169 -50 -159 -19 9 31 31 46 79 54 71 11 105 31 120 68 19 45 45 62 120
76 75 15 115 41 96 63 -26 32 -233 -16 -357 -83 -53 -28 -75 -35 -83 -27 -16
16 -14 52 4 67 24 20 132 69 190 85 44 13 263 55 288 55 4 0 7 8 7 18 0 14
-13 22 -54 32 -85 20 -155 9 -298 -49 -138 -56 -168 -62 -168 -32 0 20 150
115 260 165 59 27 161 56 196 56 28 0 51 27 36 42 -27 27 -304 -28 -437 -87
-71 -31 -75 -31 -75 0 0 48 161 131 294 151 89 14 139 67 54 57 -93 -11 -246
-46 -302 -68 -66 -27 -76 -25 -76 10 0 28 22 42 120 73 76 25 194 47 335 62
55 7 104 16 109 20 16 16 -15 40 -51 40 -59 0 -301 -40 -415 -69 -75 -19 -108
-23 -108 -15 0 7 58 41 129 77 107 55 206 92 358 136 47 13 16 26 -62 26 -64
-1 -102 -8 -190 -37 -121 -40 -205 -60 -205 -48 0 12 87 65 170 104 41 19 132
54 203 77 75 25 127 48 127 55 0 38 -80 35 -160 -6 -22 -11 -103 -42 -182 -69
-79 -27 -160 -57 -180 -67 -40 -19 -54 -15 -45 11 9 21 153 113 272 173 107
54 287 115 310 105 10 -3 15 1 15 12 0 43 -187 -8 -429 -116 -85 -39 -161 -67
-168 -65 -22 9 -14 37 20 70 66 62 411 222 494 228 27 3 49 23 35 32 -16 9
-214 -41 -312 -79 -52 -21 -130 -55 -172 -76 -43 -22 -80 -39 -82 -39 -7 0 15
62 32 88 30 47 332 176 459 197 54 8 66 25 19 25 -99 0 -289 -54 -445 -127
-67 -31 -97 -40 -102 -32 -13 21 -1 33 85 87 158 99 299 152 409 152 33 0 47
4 47 14 0 34 -53 34 -212 0 -127 -26 -249 -69 -298 -104 -34 -24 -56 -25 -64
-4 -14 37 -6 54 42 78 110 55 365 130 482 141 36 4 146 16 245 28 205 24 449
27 540 8 160 -34 245 -75 245 -120 0 -29 -12 -32 -67 -14 -51 16 -83 13 -83
-7 0 -16 69 -42 112 -44 40 -1 48 -12 48 -75 0 -33 0 -34 -38 -27 -74 12 -207
17 -221 8 -24 -17 -3 -30 57 -37 31 -3 94 -11 139 -17 l81 -11 4 -48 c1 -27 2
-49 1 -49 -1 0 -18 7 -37 16 -53 26 -86 5 -49 -31 11 -11 28 -16 54 -13 40 4
49 -7 49 -59 0 -21 -5 -23 -55 -23 -66 0 -127 -22 -119 -43 3 -10 27 -16 73
-19 85 -6 125 -25 129 -59 l3 -26 -79 5 c-73 4 -81 3 -91 -16 -14 -26 -10 -28
59 -37 50 -7 120 -29 120 -38 0 -2 9 -52 20 -112 11 -60 20 -110 20 -112 0 -2
-9 -3 -19 -3 -63 0 -66 -29 -7 -57 44 -22 44 -22 65 -110 11 -48 22 -124 23
-168 l3 -80 -52 0 c-59 -1 -71 -8 -53 -30 8 -10 30 -15 61 -15 59 0 56 9 64
-190 6 -150 24 -310 50 -440 8 -41 28 -195 45 -341 16 -147 39 -326 50 -400
11 -73 19 -133 17 -135 -1 -1 -21 3 -44 9 -53 14 -98 1 -98 -28 0 -18 7 -20
77 -20 l76 0 6 -35 c4 -19 22 -134 41 -255 20 -121 47 -267 61 -325 14 -58 36
-188 50 -290 35 -260 50 -347 86 -493 30 -118 31 -130 16 -138 -10 -5 -24 -17
-34 -26 -15 -16 -14 -18 14 -42 16 -14 35 -36 41 -48 18 -36 13 -101 -11 -143
-28 -49 -18 -74 34 -78 34 -3 36 -5 48 -59 10 -45 10 -60 -1 -79 -10 -20 -10
-30 4 -59 20 -42 41 -155 62 -327 8 -69 26 -157 39 -195 13 -39 33 -138 45
-231 12 -90 33 -218 47 -285 14 -67 28 -134 31 -149 4 -19 -3 -37 -21 -61 -14
-19 -26 -42 -26 -51 0 -15 6 -17 39 -11 l39 6 12 -83 c6 -46 22 -125 36 -177
13 -51 24 -108 24 -127 0 -44 19 -132 35 -164 l13 -26 -206 -12 c-344 -19
-660 -66 -942 -137 -158 -41 -213 -59 -204 -68 4 -4 -24 -21 -62 -38 -195 -87
-235 -107 -307 -153 -62 -40 -86 -63 -111 -106 -47 -79 -51 -103 -24 -157 28
-55 77 -98 138 -118 72 -24 270 -58 330 -58 65 1 255 28 328 47 29 7 52 12 52
10 0 -2 -10 -20 -22 -40 -26 -44 -28 -116 -5 -160 17 -32 61 -76 93 -92 20
-10 21 -21 27 -199 15 -469 120 -949 269 -1233 76 -144 116 -200 169 -234 55
-37 96 -42 160 -21 137 45 161 72 189 212 17 82 20 123 16 253 -3 85 -9 178
-15 205 -45 222 -65 302 -115 460 -115 364 -207 577 -254 583 -23 3 -23 4 8
38 56 64 84 132 86 209 1 39 3 72 3 74 1 3 12 -6 25 -18 l25 -23 73 22 c95 28
198 77 323 149 l100 59 65 -8 c36 -5 126 -24 200 -43 172 -45 307 -57 609 -57
181 0 266 4 332 16 82 15 96 15 181 0 160 -28 216 -34 498 -61 151 -14 335
-35 408 -46 243 -35 403 -42 835 -35 423 8 514 14 908 65 130 17 323 35 430
41 580 31 910 62 2224 206 582 64 578 64 754 20 80 -20 162 -36 182 -36 35 0
37 -2 44 -37 8 -43 37 -104 73 -151 24 -32 25 -34 13 -103 -7 -38 -33 -139
-57 -225 -76 -270 -114 -488 -129 -744 -12 -187 30 -546 75 -647 23 -53 100
-136 145 -157 41 -20 115 -21 159 -2 42 17 132 128 176 216 37 74 81 239 107
402 27 173 24 588 -6 904 -23 229 -23 242 -7 276 11 22 31 43 52 53 36 17 57
43 69 85 10 33 34 60 55 60 9 0 32 7 50 17 19 9 76 20 132 25 95 8 264 50 357
90 72 30 135 83 164 136 48 88 36 128 -70 227 l-76 71 -9 110 c-7 73 -6 226 1
464 12 355 15 409 51 935 11 154 40 628 65 1054 47 799 51 844 110 1348 19
165 42 402 50 525 9 122 27 344 40 492 14 149 30 353 35 455 6 102 18 284 26
403 16 234 36 849 34 1066 0 74 2 142 5 152 3 10 24 23 52 31 54 15 111 67
144 131 46 90 3 226 -102 321 -50 46 -249 163 -297 175 -27 7 -3 28 59 50 84
30 99 46 106 115 l6 56 -60 59 c-54 53 -63 68 -93 156 -41 119 -104 200 -227
291 -45 33 -82 62 -82 65 -1 3 28 20 64 38 109 57 130 125 69 229 -21 37 -96
105 -125 115 -6 2 0 25 12 53 40 89 25 275 -31 386 -41 78 -105 99 -187 58z
m119 -136 c3 -2 14 -26 24 -55 13 -39 15 -73 11 -147 -6 -130 -9 -134 -66
-126 -25 4 -68 11 -95 17 l-49 10 32 20 c49 31 81 94 81 159 0 33 -6 63 -15
75 -20 26 -19 52 3 57 16 4 59 -1 74 -10z m-11077 -442 c13 -27 29 -52 35 -56
5 -3 10 -22 10 -41 0 -26 -8 -44 -29 -65 -16 -16 -34 -29 -39 -29 -16 0 -72
119 -72 152 0 41 27 88 50 88 13 0 28 -16 45 -49z m11105 9 c40 -21 101 -79
121 -117 9 -17 9 -26 -1 -37 -17 -22 -45 -5 -59 36 -22 63 -76 92 -88 48 -5
-17 -14 -20 -67 -20 -82 0 -138 10 -133 24 2 6 21 13 43 16 53 8 64 16 64 52
0 30 0 30 41 24 22 -4 58 -15 79 -26z m-132 -169 c37 -10 25 -26 -18 -24 -133
9 -150 13 -150 35 0 10 115 3 168 -11z m6 -150 c53 -11 92 -25 98 -34 4 -8 39
-35 76 -60 88 -58 147 -124 187 -212 42 -91 60 -143 53 -151 -4 -3 -23 -1 -42
6 -36 11 -56 7 -56 -11 0 -10 14 -17 153 -74 67 -27 98 -58 79 -77 -6 -6 -21
-4 -43 7 -82 43 -338 94 -579 116 -174 15 -457 6 -605 -20 -60 -11 -113 -17
-117 -15 -20 13 16 38 93 65 79 28 96 31 273 36 228 7 476 -10 556 -38 30 -10
67 -19 83 -19 33 0 95 30 120 58 17 18 17 23 4 44 -8 12 -18 39 -22 58 -7 38
-107 150 -157 176 -46 24 -88 16 -53 -10 15 -12 23 -155 10 -187 -10 -25 -51
-28 -255 -17 -156 8 -270 7 -454 -5 -43 -3 -42 15 4 68 l40 47 208 5 c159 4
214 2 237 -8 27 -12 7 -14 -175 -19 -207 -6 -300 -20 -300 -46 0 -23 21 -26
67 -9 36 14 81 18 231 19 164 1 192 -1 224 -18 21 -10 45 -16 53 -12 17 6 20
32 5 41 -5 3 -7 18 -4 33 5 23 1 30 -21 40 -27 12 -27 13 -9 33 17 19 17 21 0
37 -15 15 -40 17 -201 17 -101 0 -186 3 -190 7 -4 4 10 11 31 17 45 12 296 17
313 7 18 -12 51 4 51 25 0 10 -13 33 -28 50 -24 27 -38 33 -93 39 l-64 7 65 1
c36 1 105 -7 154 -17z m-159 -41 c25 -11 27 -10 -77 -18 -111 -9 -121 8 -13
21 51 7 69 6 90 -3z m-10588 -76 c42 -31 69 -72 56 -85 -14 -14 -64 9 -121 56
-24 19 -52 35 -63 35 -10 0 -19 5 -19 11 0 19 116 6 147 -17z m-237 -70 c12
-31 6 -44 -21 -44 -12 0 -52 -14 -90 -30 -74 -33 -89 -32 -89 4 0 31 17 43 97
71 87 30 92 30 103 -1z m10888 -4 c2 -13 -22 -15 -165 -16 -93 0 -187 -4 -211
-7 -38 -7 -43 -5 -40 10 4 22 85 30 283 29 107 -1 130 -4 133 -16z m-10606
-70 c-13 -6 -38 -6 -60 -1 -35 8 -33 9 23 9 46 1 55 -1 37 -8z m10508 -300
c10 -6 -38 -10 -145 -10 -88 0 -205 -3 -260 -6 -56 -4 -96 -3 -92 2 5 5 77 11
160 15 247 9 321 9 337 -1z m-115 -60 l90 -3 -80 -7 c-175 -16 -387 -20 -383
-8 3 7 15 15 27 18 24 5 194 6 346 0z m637 -57 c15 -16 28 -39 30 -53 3 -23 0
-25 -33 -24 -19 1 -48 4 -62 8 -22 5 -25 10 -18 24 6 9 12 29 16 45 3 17 12
27 23 27 10 0 30 -12 44 -27z m-761 -2 c-7 -5 -52 -12 -100 -16 -47 -3 -95 -9
-106 -12 -14 -4 -17 -2 -10 6 6 6 56 15 110 19 55 5 105 10 110 10 6 1 4 -2
-4 -7z m504 -112 c143 -12 287 -40 410 -79 50 -16 109 -33 132 -39 54 -15 134
-87 163 -148 30 -63 30 -144 2 -198 -50 -94 -72 -98 -107 -19 l-25 55 22 30
c16 21 22 44 22 83 1 69 -14 86 -130 146 -68 35 -98 45 -135 45 -65 0 -82 -17
-68 -69 6 -21 8 -49 4 -63 -5 -22 -9 -24 -48 -19 -23 3 -95 10 -160 17 -64 6
-120 15 -123 20 -3 5 3 9 12 9 27 0 54 30 54 60 0 38 -35 78 -78 89 -82 22
-294 34 -387 22 -49 -6 -100 -8 -113 -5 -12 4 -28 2 -35 -4 -6 -5 -32 -13 -57
-17 -126 -19 -480 -120 -480 -137 0 -9 13 -11 54 -8 18 1 26 -2 22 -9 -4 -6
-15 -11 -25 -11 -18 0 -41 -18 -41 -32 0 -16 97 -7 205 18 307 71 332 75 540
81 110 3 197 2 194 -1 -4 -4 -87 -13 -185 -21 -313 -26 -497 -58 -639 -112
-56 -21 -66 -45 -21 -53 28 -5 28 -5 -18 -27 -26 -13 -51 -23 -56 -23 -13 0
-89 -83 -90 -97 0 -22 -16 -15 -58 26 -23 23 -46 57 -53 79 -10 36 -9 45 13
93 49 104 161 184 329 233 116 33 316 74 419 85 121 12 394 13 535 0z m-307
-105 c45 -12 20 -24 -50 -24 -40 0 -134 -7 -208 -15 -74 -8 -136 -13 -137 -11
-11 10 153 36 312 49 22 2 45 4 50 5 6 1 20 -1 33 -4z m-10283 -14 c4 -6 -7
-10 -25 -10 -18 0 -29 4 -25 10 3 6 15 10 25 10 10 0 22 -4 25 -10z m-205 -59
c0 -4 -29 -11 -64 -15 -35 -3 -121 -17 -192 -31 -149 -29 -141 -28 -129 -16
14 13 142 40 265 55 58 8 108 14 113 15 4 0 7 -3 7 -8z m150 -41 c0 -5 -8 -10
-17 -10 -10 0 -94 -9 -187 -20 -93 -11 -171 -18 -174 -15 -3 3 1 5 9 6 8 0 79
11 159 24 164 26 210 29 210 15z m10755 -90 c98 -9 131 -16 180 -39 33 -16 79
-37 103 -47 95 -39 170 -168 143 -245 -7 -19 -11 -114 -11 -239 0 -447 -47
-1312 -111 -2035 -11 -126 -22 -297 -25 -379 -2 -82 -11 -186 -19 -230 -8 -45
-21 -151 -30 -236 -8 -85 -24 -227 -35 -315 -27 -219 -37 -372 -55 -780 -14
-333 -30 -570 -40 -625 -3 -14 -12 -169 -20 -345 -14 -298 -30 -519 -41 -555
-7 -25 -44 -943 -44 -1099 l0 -143 -22 5 c-13 3 -76 24 -140 47 -342 120 -781
155 -1303 105 l-50 -5 45 21 c25 11 106 36 180 55 114 28 146 32 205 27 58 -5
73 -3 84 11 8 9 11 19 8 22 -3 3 -50 8 -104 11 -89 4 -166 -3 -336 -34 -46 -9
-31 27 18 44 63 22 222 52 360 68 71 8 130 17 132 19 2 2 -3 11 -12 20 -30 30
-311 14 -507 -28 -10 -2 -18 0 -18 4 0 5 12 10 28 12 24 3 27 7 27 38 l0 35
87 22 c48 12 152 27 230 33 212 17 228 19 228 35 0 8 -12 18 -26 21 -49 12
-365 -5 -474 -25 -57 -11 -106 -18 -108 -16 -9 8 11 26 45 40 31 13 34 18 28
44 l-6 29 113 20 c129 24 234 38 361 48 89 7 115 20 89 46 -17 17 -394 -7
-512 -32 -52 -11 -96 -20 -97 -20 -11 0 2 23 32 57 26 31 47 44 92 56 94 26
189 38 353 45 128 6 155 10 155 22 0 36 -400 33 -560 -4 -64 -15 -83 -12 -65
10 43 51 353 114 560 114 61 0 80 3 80 14 0 35 -25 39 -243 33 -116 -3 -231
-11 -255 -17 -59 -14 -122 3 -122 35 0 19 10 25 58 38 95 26 163 36 344 47 95
7 175 13 177 15 2 2 1 11 -2 20 -5 13 -32 15 -177 15 -152 0 -324 -11 -387
-25 -46 -10 -21 14 37 36 38 16 60 30 62 42 2 10 6 18 10 18 4 0 22 5 40 10
18 6 121 16 228 24 164 12 197 17 208 32 11 15 10 20 -5 31 -10 7 -24 9 -33 6
-8 -4 -91 -11 -185 -15 -164 -8 -320 -24 -350 -35 -30 -12 -14 14 16 27 18 7
45 23 60 37 38 32 228 71 359 73 52 1 100 6 107 11 7 6 26 5 48 -3 31 -11 37
-11 45 1 15 23 12 37 -12 60 -25 23 -69 26 -106 6 -18 -10 -90 -18 -207 -26
-99 -6 -209 -17 -245 -25 -36 -7 -69 -10 -73 -6 -9 9 1 41 14 41 5 0 27 18 48
39 52 52 101 62 335 70 166 5 190 8 200 24 18 29 -10 37 -139 37 -121 0 -366
-15 -417 -26 -17 -3 -28 -1 -28 5 0 11 18 20 75 38 23 7 29 14 27 30 -3 18 4
23 50 32 175 35 380 45 436 22 40 -17 102 1 102 29 0 25 -12 28 -162 36 -135
7 -320 -5 -465 -31 -55 -9 -73 -9 -73 0 0 34 104 110 176 129 72 18 229 36
321 36 37 0 78 3 91 6 25 7 30 39 6 48 -42 16 -415 -5 -504 -28 -30 -8 -57
-12 -60 -9 -3 3 7 15 22 26 14 12 28 33 30 47 3 22 11 27 83 43 50 11 144 20
247 24 171 6 198 14 161 45 -12 10 -63 13 -207 13 -105 0 -205 -3 -222 -7 -28
-6 -31 -5 -27 12 3 12 -4 24 -21 35 -14 10 -26 21 -26 25 0 20 242 50 408 50
122 0 123 0 120 23 l-3 22 -262 -1 -263 -1 0 23 c0 28 26 47 106 75 46 16 96
22 224 28 149 7 224 21 206 38 -14 14 -157 19 -310 11 -106 -6 -172 -6 -178 0
-11 11 44 60 75 66 12 3 105 16 207 31 236 33 230 32 230 54 0 45 -73 45 -362
1 -154 -24 -159 -24 -130 -1 12 11 22 26 22 35 0 25 69 64 151 85 45 12 134
22 218 27 77 4 141 10 141 14 0 4 -7 13 -15 20 -12 10 -58 11 -198 7 -163 -5
-232 -14 -332 -43 -13 -4 -16 -3 -10 3 6 5 30 15 54 22 31 9 40 16 32 24 -8 8
-21 7 -47 -1 -67 -20 -70 16 -4 42 24 9 45 27 54 44 8 16 26 32 38 36 24 7
208 23 371 32 53 3 97 10 97 15 0 21 -58 29 -198 29 l-147 1 55 34 c30 19 62
35 72 35 23 0 24 20 1 21 -56 3 -109 -6 -206 -37 -60 -19 -114 -34 -122 -34
-7 0 -18 -7 -25 -15 -17 -21 -24 -12 -10 14 6 12 29 30 51 41 22 12 44 31 48
44 10 24 39 35 158 60 40 9 89 22 109 31 20 8 73 16 121 17 71 2 86 0 94 -15
13 -22 31 -22 60 3 20 16 22 21 10 29 -55 36 -412 39 -584 6 -48 -10 -90 -15
-93 -12 -12 12 21 50 72 83 34 22 54 42 54 53 0 15 11 22 50 30 60 13 187 27
328 36 76 5 102 11 102 21 0 7 -12 17 -27 20 -30 8 -413 -3 -458 -13 l-29 -6
27 33 c19 22 27 40 23 55 -5 20 0 23 57 34 34 7 146 15 250 18 173 5 187 7
187 24 0 12 -10 21 -26 25 -38 10 -406 -3 -487 -16 -38 -7 -71 -9 -74 -6 -8 8
48 58 103 90 l49 28 -22 18 c-21 17 -19 17 70 13 78 -4 108 0 192 22 88 24
136 35 223 51 20 4 22 7 12 19 -9 11 -33 15 -79 15 -81 -1 -281 -15 -419 -31
-56 -7 -105 -9 -109 -6 -11 12 26 44 67 57 22 7 48 21 59 31 27 26 157 47 355
60 93 6 174 13 179 16 15 9 -14 32 -49 39 -40 7 -357 -12 -497 -30 -64 -8
-100 -9 -104 -3 -10 16 34 45 80 52 62 11 80 22 73 49 -5 21 -1 23 72 34 161
25 290 34 392 30 110 -5 153 4 148 31 -3 14 -32 16 -243 14 -132 -1 -293 -8
-357 -16 -65 -7 -118 -10 -118 -6 0 4 15 12 33 19 17 7 41 21 52 31 24 21 229
66 341 74 43 4 101 2 128 -3 28 -6 56 -6 65 -2 9 5 28 11 44 15 23 5 26 8 17
24 -9 18 -21 19 -207 15 -177 -5 -422 -24 -507 -41 -52 -11 -15 21 54 46 33
12 66 31 74 42 18 26 123 44 306 54 96 4 139 10 150 21 13 12 13 16 0 27 -12
11 -59 13 -236 8 l-221 -6 -71 -36 -72 -35 0 28 c0 39 43 63 137 77 99 15 110
22 78 55 -14 14 -12 17 18 30 93 38 222 46 357 20 92 -17 133 -13 128 14 -4
22 -101 39 -268 48 -143 7 -237 -4 -348 -42 -85 -30 -108 -23 -82 23 12 20 37
33 120 60 208 68 281 84 398 90 61 3 112 9 112 13 0 4 -7 14 -17 21 -13 11
-65 14 -242 14 -209 0 -231 -2 -288 -23 -34 -12 -65 -22 -68 -22 -3 0 -5 11
-5 26 0 19 8 28 33 39 51 21 218 53 347 65 63 7 128 18 143 27 15 8 44 13 65
11 27 -2 37 1 40 13 3 17 -48 27 -208 44 -74 8 -259 -10 -343 -34 -55 -15 -67
-16 -67 -4 0 16 30 29 94 38 25 4 57 16 70 26 21 17 154 49 271 65 28 3 58 13
67 22 14 11 32 14 82 9 50 -5 67 -3 77 9 7 9 9 18 3 24 -5 5 -121 11 -259 12
-251 3 -273 1 -380 -37 -16 -5 -15 -2 7 18 19 18 43 27 88 32 41 5 70 14 88
30 43 36 378 103 415 84 23 -13 71 10 75 36 3 19 -4 20 -241 23 -197 3 -255 1
-304 -12 -74 -19 -73 -19 -73 -1 0 9 14 16 38 20 105 17 110 51 6 48 l-69 -3
30 20 c61 38 128 47 379 49 132 1 242 3 244 6 3 2 -6 9 -20 14 -13 5 -30 16
-36 24 -33 40 -331 55 -452 24 -36 -10 -91 -30 -122 -46 -51 -26 -58 -27 -58
-12 0 29 33 50 96 61 75 13 104 26 104 44 0 22 -32 28 -81 17 -67 -16 -77 -14
-56 7 14 14 42 18 145 23 120 5 262 33 262 51 0 4 -21 9 -47 11 -27 3 16 4 94
2 116 -3 141 -1 136 10 -13 34 -167 55 -318 43 -89 -7 -240 -45 -296 -73 -22
-12 -29 -13 -30 -3 -5 47 10 60 102 88 89 27 90 38 4 52 -16 3 -13 6 12 15 27
10 35 9 47 -3 12 -12 28 -12 92 -3 81 11 154 35 154 50 0 5 -8 9 -17 10 -31 1
26 15 144 35 134 22 136 39 5 39 -169 -1 -311 -21 -413 -59 -119 -44 -122 -45
-127 -23 -6 28 24 54 82 73 71 23 83 34 54 50 l-23 12 30 12 c107 42 379 79
473 65 33 -5 42 -3 42 8 0 35 -25 40 -208 34 -197 -5 -287 -23 -395 -77 -33
-17 -63 -28 -65 -25 -3 3 2 21 11 39 15 33 29 41 145 81 7 3 10 10 6 16 -5 8
-28 10 -73 6 -61 -6 -64 -5 -41 8 90 52 307 95 478 95 65 0 112 4 112 10 0 24
-49 34 -175 33 -149 0 -262 -18 -437 -69 -10 -3 -18 -1 -18 4 0 11 53 32 142
57 64 18 86 36 65 54 -10 8 -26 7 -60 -5 -82 -28 -75 -9 8 23 143 55 208 67
357 67 76 1 138 5 138 9 0 4 -17 15 -37 25 -29 12 -69 16 -168 17 -144 0 -210
-14 -378 -81 -49 -20 -91 -33 -94 -30 -22 22 71 89 171 123 39 13 77 26 85 28
11 4 11 8 1 20 -7 9 -10 18 -7 22 17 16 156 34 290 37 81 2 150 6 153 8 2 3
-3 11 -12 19 -23 19 -264 25 -380 9 -49 -6 -127 -25 -174 -41 -47 -16 -93 -32
-102 -35 -30 -10 -21 30 10 48 15 8 59 26 97 38 121 39 167 61 160 78 -8 20
12 32 55 32 20 0 45 6 56 14 13 10 25 11 35 5 18 -11 216 -12 223 0 3 5 -2 15
-11 22 -12 11 -56 14 -177 14 -178 0 -263 -14 -387 -65 -60 -25 -71 -27 -76
-14 -9 24 14 63 44 75 16 6 105 28 198 50 231 53 298 72 303 87 5 16 -56 15
-130 -2 -61 -15 -67 -14 -43 10 21 21 19 44 -4 44 -11 0 -40 -9 -66 -20 -52
-22 -195 -61 -195 -53 0 8 26 28 88 69 96 64 214 98 442 129 112 15 313 13
535 -5z m-11340 0 c-3 -5 -12 -10 -18 -10 -7 0 -6 4 3 10 19 12 23 12 15 0z
m-16 -54 c-3 -3 -25 -9 -49 -15 -40 -9 -43 -8 -26 5 17 12 87 21 75 10z m1142
-57 c134 -38 158 -48 189 -79 72 -72 79 -193 18 -274 -14 -17 -17 -15 -64 34
l-50 52 24 49 c38 75 25 104 -62 149 -59 30 -81 36 -150 38 -71 3 -83 1 -100
-16 -21 -24 -15 -39 20 -52 27 -11 31 -35 12 -76 l-12 -26 -117 4 c-151 4
-172 16 -179 104 -5 56 -6 59 -34 62 -81 9 -347 -36 -577 -98 -81 -22 -149
-40 -152 -40 -9 0 -36 60 -29 64 16 9 194 56 282 74 193 41 603 83 746 78 59
-3 125 -16 235 -47z m9085 -108 c-8 -13 -36 -15 -36 -3 0 4 5 13 12 20 14 14
34 0 24 -17z m-10451 -29 c-9 -8 -61 -31 -222 -99 -47 -19 -40 -8 14 24 66 38
236 100 208 75z m772 -18 c-3 -3 -12 -4 -19 -1 -8 3 -5 6 6 6 11 1 17 -2 13
-5z m-127 -24 c-52 -9 -142 -30 -200 -45 -122 -33 -181 -41 -206 -27 -13 7 2
14 72 30 80 19 220 45 299 55 17 2 53 4 80 5 42 0 34 -3 -45 -18z m9654 -120
c-1 -19 -3 -44 -4 -55 -1 -11 -2 -144 -1 -295 1 -377 -5 -756 -14 -933 -6
-106 -4 -176 5 -248 12 -87 11 -120 -3 -247 -22 -196 -35 -425 -42 -718 -3
-133 -12 -295 -20 -360 -8 -66 -20 -236 -25 -379 -6 -143 -15 -307 -20 -365
-16 -170 -40 -605 -40 -735 0 -66 -4 -136 -10 -155 -23 -86 -42 -274 -55 -558
-10 -193 -23 -357 -37 -442 -12 -74 -23 -166 -24 -205 -20 -393 -39 -593 -84
-865 -47 -283 -43 -272 -98 -297 -98 -45 -172 -136 -172 -211 0 -61 81 -192
119 -192 9 0 11 -3 6 -9 -12 -10 -260 -41 -333 -41 -45 0 -54 3 -69 28 -10 15
-22 30 -27 34 -15 10 -48 -12 -42 -28 3 -8 9 -21 12 -29 13 -31 -93 -54 -314
-70 l-82 -6 31 57 c28 50 30 57 17 71 -13 12 -20 13 -38 3 -13 -7 -37 -10 -56
-7 -19 3 -40 0 -50 -8 -16 -11 -16 -17 -6 -52 20 -68 17 -76 -24 -70 -46 8
-60 20 -90 78 -24 48 -56 79 -82 79 -19 0 -10 -46 22 -116 13 -29 22 -55 18
-58 -12 -13 -110 -6 -122 9 -17 21 -36 19 -53 -6 -12 -17 -37 -23 -163 -39
-181 -23 -469 -46 -744 -60 -199 -10 -205 -9 -219 10 -7 11 -24 20 -37 20 -19
0 -24 -5 -24 -25 0 -23 -4 -25 -43 -25 -47 0 -64 12 -85 63 -6 15 -18 27 -26
27 -22 0 -38 -35 -30 -65 l6 -25 -142 0 c-118 0 -149 -3 -188 -20 -172 -73
-1077 -129 -1358 -84 -54 8 -171 17 -259 19 -88 2 -212 10 -275 19 -63 9 -157
20 -209 26 -106 10 -136 25 -190 96 -18 24 -39 44 -46 44 -25 0 -35 -25 -25
-60 5 -19 8 -36 5 -38 -3 -3 -56 0 -118 7 -62 6 -156 11 -208 11 -56 0 -116 6
-146 15 -62 19 -126 79 -146 138 -30 87 -80 315 -85 384 -5 80 -26 116 -38 68
-13 -52 5 -191 51 -399 25 -114 43 -211 40 -215 -6 -5 -48 -6 -305 -2 -41 1
-120 8 -174 16 -55 8 -135 15 -178 15 -54 0 -93 6 -130 20 -29 12 -83 24 -120
27 -36 3 -71 9 -78 13 -7 5 2 33 30 90 45 94 49 129 21 192 -34 75 -97 129
-184 159 -41 14 -51 22 -49 37 2 11 -9 66 -23 121 -14 56 -30 136 -35 177 -5
42 -17 96 -25 120 -8 25 -15 58 -15 73 0 16 -16 87 -35 157 -48 175 -90 381
-110 544 -9 74 -27 169 -40 210 -33 108 -36 122 -45 254 -5 65 -13 123 -19
129 -6 6 -11 50 -11 99 0 62 -5 101 -19 135 -10 26 -22 80 -26 118 -6 69 -24
159 -105 545 -22 107 -54 287 -71 400 -16 113 -39 241 -50 285 -31 124 -129
745 -163 1025 -8 69 -20 190 -26 270 -6 80 -22 202 -36 272 -31 160 -49 323
-73 658 -18 243 -22 269 -45 315 -25 49 -29 69 -61 325 -9 69 -25 176 -36 239
-11 63 -21 148 -22 190 l-2 76 38 3 c20 2 74 -6 120 -17 45 -10 134 -22 197
-25 71 -4 138 -14 175 -25 33 -11 132 -34 219 -51 153 -31 220 -35 281 -15 13
4 35 -4 66 -25 35 -23 52 -44 72 -88 49 -109 131 -447 128 -528 -1 -36 9 -82
35 -160 43 -127 55 -148 65 -113 15 52 9 114 -15 155 -19 33 -22 51 -18 92 2
29 -1 73 -8 99 -6 27 -13 80 -16 118 -2 43 -19 120 -43 200 -21 72 -42 151
-46 177 l-7 46 54 20 c226 83 408 112 709 112 161 0 213 -4 281 -20 46 -10
153 -26 238 -35 85 -8 207 -22 270 -30 145 -19 409 -42 565 -50 66 -4 181 -14
255 -23 107 -13 232 -17 605 -17 l470 -1 114 -32 c135 -38 198 -71 216 -115 7
-18 23 -84 35 -148 20 -109 51 -188 76 -196 6 -2 14 2 17 10 4 12 -8 311 -16
371 -3 27 35 47 207 112 136 50 181 64 361 110 41 10 134 20 225 24 85 4 218
15 295 24 85 10 297 20 540 26 220 5 474 14 565 19 91 6 248 15 350 21 302 18
586 60 765 111 87 25 232 77 265 95 14 8 34 13 45 11 16 -2 20 -9 19 -37z
m-10235 -35 c-9 -8 -191 -76 -195 -72 -4 4 40 25 121 56 48 18 83 26 74 16z
m-429 -98 c22 -55 25 -59 50 -53 24 4 27 2 23 -14 -4 -15 0 -20 15 -20 16 0
24 -11 36 -54 9 -30 16 -63 16 -74 0 -18 -4 -20 -31 -12 -98 28 -179 124 -179
212 0 44 26 97 40 81 4 -4 17 -34 30 -66z m165 38 c-73 -35 -116 -47 -80 -21
23 15 125 55 140 55 6 -1 -21 -16 -60 -34z m11188 -1132 c-7 -2 -19 -2 -25 0
-7 3 -2 5 12 5 14 0 19 -2 13 -5z m-468 -253 c-3 -5 -13 -10 -21 -10 -8 0 -14
5 -14 10 0 6 9 10 21 10 11 0 17 -4 14 -10z m-85 -190 c0 -5 -7 -10 -16 -10
-8 0 -12 5 -9 10 3 6 10 10 16 10 5 0 9 -4 9 -10z m-10110 -338 c0 -11 -45
-32 -66 -32 -25 0 -6 19 29 29 18 5 33 10 35 10 1 1 2 -3 2 -7z m230 -1112 c0
-13 -78 -52 -96 -48 -30 6 -14 23 38 40 29 9 54 16 56 17 1 1 2 -3 2 -9z m100
-657 c0 -18 -116 -81 -127 -69 -4 4 107 75 120 76 4 0 7 -3 7 -7z m105 -342
c-12 -12 -65 -25 -65 -17 0 8 39 24 60 25 9 1 10 -2 5 -8z m5 -545 c0 -3 -4
-8 -10 -11 -5 -3 -10 -1 -10 4 0 6 5 11 10 11 6 0 10 -2 10 -4z m-30 -10 c0
-3 -4 -8 -10 -11 -5 -3 -10 -1 -10 4 0 6 5 11 10 11 6 0 10 -2 10 -4z m4 -848
c-9 -14 -23 2 -17 18 4 12 8 13 14 3 4 -7 5 -17 3 -21z m46 -361 c0 -24 -3
-28 -10 -17 -13 20 -13 63 0 55 6 -3 10 -21 10 -38z m196 -166 c-7 -11 -95
-36 -102 -28 -5 5 71 35 94 36 7 1 11 -3 8 -8z m39 -291 c-10 -11 -23 -20 -29
-20 -6 1 0 10 13 20 30 26 39 26 16 0z m-69 -45 c-11 -8 -25 -15 -30 -15 -6 0
-2 7 8 15 11 8 25 15 30 15 6 0 2 -7 -8 -15z m-37 -367 c0 -28 -2 -30 -9 -13
-12 28 -12 45 0 45 6 0 10 -15 9 -32z m9866 -38 c344 -22 559 -71 755 -170 41
-21 87 -41 102 -44 41 -9 96 -63 109 -106 10 -33 9 -43 -5 -65 -21 -31 -30
-32 -44 0 -27 60 -145 115 -407 190 -347 99 -707 136 -1033 104 -62 -6 -116
-8 -120 -5 -12 12 23 61 53 76 20 9 80 16 175 20 229 10 256 10 415 0z m-95
-140 c41 -4 61 -7 43 -8 -89 -5 -412 -33 -471 -42 -84 -12 -152 -13 -152 -1 0
11 63 27 165 40 136 19 293 23 415 11z m-8067 -94 c90 -26 156 -94 172 -177 9
-50 -30 -134 -86 -182 -24 -21 -60 -54 -79 -73 -19 -19 -43 -34 -52 -34 -31 0
-19 34 23 65 49 36 94 91 114 139 19 44 20 105 2 112 -7 2 -26 26 -41 53 -16
26 -37 53 -49 60 -22 14 -230 51 -285 51 -18 0 -31 3 -29 8 8 13 249 -4 310
-22z m-542 -2 c-57 -8 -197 -32 -310 -55 -270 -52 -270 -52 -249 -39 66 41
438 107 608 108 43 0 32 -3 -49 -14z m350 -38 c-8 -10 -62 -15 -214 -20 -111
-3 -218 -8 -237 -11 l-35 -5 31 10 c56 18 238 38 353 39 94 1 112 -1 102 -13z
m7724 -16 c12 -19 -16 -50 -56 -60 -22 -6 -60 -29 -84 -51 -64 -59 -131 -52
-80 9 28 34 79 57 148 67 41 6 47 10 42 26 -7 20 18 28 30 9z m775 -11 c74
-12 167 -22 206 -23 64 -1 75 -4 125 -38 30 -21 62 -38 72 -38 9 0 17 -6 17
-13 0 -22 -31 -44 -105 -73 -45 -18 -82 -41 -105 -66 l-35 -38 2 42 c1 24 2
46 2 50 1 5 21 17 45 29 25 11 47 27 50 35 5 12 -5 15 -57 13 -39 -1 -89 6
-135 19 -121 35 -231 45 -412 38 -237 -9 -237 -9 -262 -62 -30 -65 -109 -106
-173 -90 -52 13 -25 46 59 70 25 7 45 20 51 34 5 12 16 22 23 22 7 0 36 21 63
47 l51 48 122 6 c218 10 259 9 396 -12z m-965 -12 c-11 -7 -36 -29 -56 -49
-41 -43 -54 -46 -69 -19 -8 17 -4 23 33 44 51 30 66 35 92 36 l20 0 -20 -12z
m-7537 -3 c57 -16 8 -23 -163 -26 -102 -2 -185 0 -185 3 0 12 311 32 348 23z
m-629 -18 c-2 -2 -76 -23 -164 -45 -88 -23 -169 -44 -180 -48 -43 -12 -5 9 51
28 79 28 308 79 293 65z m9732 -32 c34 -33 46 -83 29 -124 -11 -27 -45 -49
-57 -37 -3 3 5 23 17 45 27 48 23 79 -12 105 -27 20 -29 20 -88 4 -72 -21 -70
-20 -70 -2 0 8 8 15 18 15 10 0 27 7 38 15 28 23 90 13 125 -21z m-9191 -4
c12 -8 9 -10 -13 -10 -16 0 -26 4 -22 10 8 12 16 12 35 0z m-200 -10 c-14 -4
-34 -8 -45 -8 l-20 -1 20 9 c11 5 31 8 45 8 l25 0 -25 -8z m8038 -12 c18 -18
16 -22 -43 -53 -44 -24 -58 -28 -72 -19 -32 20 -26 40 19 63 49 24 78 27 96 9z
m-8443 -48 c-11 -5 -31 -8 -45 -8 -23 0 -22 1 5 8 42 11 65 11 40 0z m820 -1
c28 -45 -68 -140 -244 -238 -72 -41 -154 -96 -181 -122 -26 -25 -60 -49 -74
-53 -33 -8 -33 -31 -2 -77 39 -57 39 -94 1 -85 -23 6 -28 2 -42 -31 -25 -61
-37 -60 -44 3 -12 108 -88 146 -188 95 -23 -12 -45 -20 -48 -17 -3 3 2 8 11
12 9 3 16 13 16 21 0 11 -7 13 -25 9 -14 -4 -25 -4 -25 -1 0 11 105 53 150 60
24 4 55 14 67 22 18 12 29 13 57 3 43 -14 51 -10 66 35 6 19 16 35 21 35 4 0
15 13 24 29 24 47 109 125 173 159 32 17 96 42 142 55 57 17 86 30 88 41 4 20
2 20 -99 -5 -115 -28 -168 -49 -204 -80 l-30 -27 -180 6 c-100 3 -169 9 -155
13 14 4 40 7 59 8 18 1 66 13 105 27 50 18 99 27 166 31 81 4 104 9 155 36 40
20 82 33 125 37 100 11 108 11 115 -1z m7966 -60 c-48 -96 -42 -155 24 -228
45 -50 109 -76 167 -68 50 7 198 -13 198 -27 0 -12 -211 0 -308 17 -49 9 -77
20 -87 33 -71 94 -66 251 11 328 29 29 27 9 -5 -55z m-9136 51 c-28 -12 -37
-12 -30 0 3 6 16 10 28 9 21 0 21 -1 2 -9z m170 -30 c-60 -15 -114 -24 -120
-21 -5 3 8 9 30 14 22 5 65 15 95 22 30 7 66 13 80 13 14 0 -24 -13 -85 -28z
m8875 0 c0 -15 -56 -40 -90 -40 -48 0 -35 17 20 25 27 4 52 11 56 16 7 12 14
11 14 -1z m-8720 -14 c0 -2 -7 -7 -16 -10 -8 -3 -12 -2 -9 4 6 10 25 14 25 6z
m9238 -52 c34 -30 52 -53 52 -68 0 -27 -50 -100 -79 -115 -40 -22 -49 -14 -43
34 4 37 0 50 -22 79 -14 19 -42 40 -61 47 -58 21 -37 48 37 49 15 0 30 5 33
10 11 18 30 10 83 -36z m-9308 32 c0 -13 -378 -111 -388 -101 -6 5 123 45 241
75 109 28 147 34 147 26z m-664 -82 c-19 -13 -46 -19 -46 -9 0 8 55 34 60 28
3 -2 -4 -11 -14 -19z m534 -74 c0 -5 -2 -10 -4 -10 -3 0 -8 5 -11 10 -3 6 -1
10 4 10 6 0 11 -4 11 -10z m-345 -40 c-9 -10 -31 -21 -48 -24 -18 -3 -80 -26
-139 -50 -60 -24 -108 -41 -108 -36 0 18 91 67 188 101 110 38 135 40 107 9z
m815 0 c-87 -11 -200 -17 -194 -11 9 9 98 18 179 18 l80 0 -65 -7z m-682 -46
c10 -4 -25 -16 -87 -30 -57 -13 -136 -40 -176 -60 -51 -25 -80 -34 -95 -29
-31 10 -17 20 86 62 92 38 219 73 242 67 6 -2 20 -7 30 -10z m113 -54 l24 -19
-23 -1 c-12 0 -75 -13 -140 -29 -138 -35 -222 -47 -222 -33 0 23 204 86 326
101 7 0 22 -8 35 -19z m538 16 c-2 -2 -33 -6 -68 -9 -41 -3 -59 -2 -50 4 13 8
128 14 118 5z m-454 -86 c0 -11 -28 -21 -105 -37 -107 -22 -225 -30 -216 -14
11 18 250 72 301 68 11 -1 20 -9 20 -17z m195 0 c0 -15 -39 -32 -63 -27 -19 3
-18 5 13 20 41 19 50 20 50 7z m9094 -187 c24 -75 45 -205 58 -371 20 -262
-18 -611 -93 -848 l-10 -31 -67 14 c-43 9 -106 13 -175 11 -95 -3 -108 -1
-113 14 -10 33 6 41 66 35 55 -5 181 20 201 40 9 9 34 191 49 363 6 63 15 264
19 446 8 317 14 374 41 374 4 0 15 -21 24 -47z m-9178 10 c-10 -10 -19 5 -10
18 6 11 8 11 12 0 2 -7 1 -15 -2 -18z m435 -352 c75 -148 145 -364 204 -626
46 -208 63 -320 57 -383 -3 -30 -6 -32 -42 -32 -21 0 -45 -3 -53 -6 -13 -5
-14 1 -5 36 9 32 7 53 -5 98 -9 31 -26 98 -38 147 -12 50 -49 176 -82 280 -72
229 -127 421 -127 449 0 12 -6 41 -14 66 -17 56 -6 93 26 88 16 -2 35 -30 79
-117z m8337 -690 c2 -32 0 -42 -10 -39 -7 3 -14 23 -16 47 -2 32 0 42 10 39 7
-3 14 -23 16 -47z m-8002 -298 c-11 -11 -17 4 -9 23 7 18 8 18 11 1 2 -10 1
-21 -2 -24z m8332 9 c7 -46 -51 -134 -77 -117 -14 8 -14 85 -1 120 8 22 15 26
42 23 26 -2 34 -8 36 -26z m-8328 -172 c-6 -10 -9 1 -9 35 1 48 1 49 9 15 5
-19 4 -41 0 -50z m-80 -29 c0 -68 -14 -115 -33 -109 -27 9 -58 116 -44 153 4
9 19 15 42 15 l35 0 0 -59z m-230 -15 c0 -8 -9 -18 -20 -21 -11 -3 -20 -15
-20 -26 0 -23 -18 -25 -27 -3 -3 8 4 25 17 40 26 27 50 32 50 10z m8590 -5 c0
-5 -15 -16 -34 -25 -41 -19 -89 -21 -84 -3 8 23 118 50 118 28z"/>
<path d="M11595 10043 c-46 -5 -65 -18 -65 -44 0 -27 8 -28 93 -11 81 16 99
34 51 52 -14 6 -28 9 -32 8 -4 -1 -25 -3 -47 -5z"/>
<path d="M11812 10028 c-16 -16 -15 -23 4 -42 21 -22 56 -3 52 27 -3 25 -37
34 -56 15z"/>
<path d="M11632 9648 c-13 -13 2 -38 24 -38 20 0 27 19 14 35 -15 18 -22 19
-38 3z"/>
<path d="M11669 9414 c-9 -11 -10 -20 -3 -32 16 -24 31 -25 43 -3 21 39 -12
69 -40 35z"/>
<path d="M11614 8989 c-4 -7 1 -18 11 -26 27 -19 37 -16 33 9 -3 25 -32 36
-44 17z"/>
<path d="M11714 8904 c3 -9 6 -20 6 -25 0 -15 27 -10 34 7 8 22 -1 34 -26 34
-14 0 -18 -5 -14 -16z"/>
<path d="M11682 8678 c-9 -12 0 -58 12 -58 33 0 47 35 24 58 -15 15 -23 15
-36 0z"/>
<path d="M11667 8508 c-6 -19 11 -48 29 -48 20 0 29 27 14 45 -15 18 -37 19
-43 3z"/>
<path d="M11612 7808 c-15 -15 -16 -45 -2 -53 16 -10 41 16 38 38 -4 25 -20
31 -36 15z"/>
<path d="M11564 6926 c-8 -21 3 -36 27 -36 15 0 20 6 17 22 -4 27 -35 37 -44
14z"/>
<path d="M11518 6773 c7 -3 16 -2 19 1 4 3 -2 6 -13 5 -11 0 -14 -3 -6 -6z"/>
<path d="M11476 6403 c-11 -11 -6 -23 8 -23 8 0 17 4 20 9 7 10 -19 23 -28 14z"/>
<path d="M11367 5989 c-25 -15 -11 -29 28 -29 40 0 53 15 26 29 -24 13 -31 13
-54 0z"/>
<path d="M11450 5922 c-27 -21 -20 -42 14 -42 27 0 46 18 46 42 0 24 -31 23
-60 0z"/>
<path d="M11380 5746 c0 -8 5 -18 10 -21 13 -8 42 14 34 26 -9 15 -44 10 -44
-5z"/>
<path d="M11352 5324 c2 -11 11 -20 22 -22 13 -3 17 1 14 14 -2 11 -11 20 -22
22 -13 3 -17 -1 -14 -14z"/>
<path d="M11335 5030 c-9 -15 14 -40 35 -40 30 0 33 29 4 40 -31 12 -31 12
-39 0z"/>
<path d="M11337 4853 c-11 -11 -8 -22 13 -43 22 -22 50 -17 50 9 0 31 -43 55
-63 34z"/>
<path d="M11333 4504 c-7 -19 13 -34 45 -34 15 0 22 6 22 19 0 31 -56 44 -67
15z"/>
<path d="M11347 4253 c-14 -13 -6 -53 12 -63 27 -14 34 -13 49 10 10 17 9 23
-8 40 -20 20 -41 25 -53 13z"/>
<path d="M11337 4094 c-16 -17 -6 -44 19 -50 30 -8 47 6 42 32 -3 19 -47 32
-61 18z"/>
<path d="M11329 3840 c-11 -7 -11 -14 -3 -27 14 -23 48 -23 52 -1 4 21 -29 40
-49 28z"/>
<path d="M7177 8614 c-15 -15 -7 -73 12 -83 22 -12 31 -5 31 25 0 25 -32 69
-43 58z"/>
<path d="M3432 8403 c-19 -37 -22 -77 -11 -136 14 -74 24 -89 58 -85 22 3 26
7 23 33 -1 17 -6 62 -10 101 -9 89 -38 130 -60 87z"/>
<path d="M7180 8381 c-5 -11 -7 -27 -4 -35 13 -33 54 -9 54 31 0 29 -35 32
-50 4z"/>
<path d="M7200 8121 c-15 -28 -12 -77 5 -91 20 -16 33 -6 46 40 9 31 9 43 -1
55 -17 21 -37 19 -50 -4z"/>
<path d="M3481 8044 c-20 -14 -23 -23 -18 -61 5 -51 41 -95 71 -91 18 3 19 10
17 73 -1 51 -6 73 -18 83 -21 15 -24 15 -52 -4z"/>
<path d="M7244 7876 c-10 -25 0 -61 17 -64 22 -4 31 22 19 53 -11 28 -28 33
-36 11z"/>
<path d="M3534 7625 c-3 -14 -3 -40 1 -58 3 -17 10 -76 14 -130 6 -79 12 -102
29 -120 12 -13 22 -30 22 -39 0 -27 33 -60 53 -53 23 10 22 66 -3 140 -11 32
-20 74 -20 93 0 48 -29 154 -47 175 -23 24 -42 21 -49 -8z"/>
<path d="M7253 7593 c-4 -10 -7 -101 -7 -203 0 -176 1 -189 27 -263 26 -75 27
-80 12 -123 -28 -82 -11 -225 28 -232 25 -5 30 35 11 87 -17 48 -17 50 6 110
l22 61 -21 52 c-33 84 -42 152 -40 335 0 95 -2 177 -6 183 -10 15 -25 12 -32
-7z"/>
<path d="M3667 7073 c-4 -3 -7 -22 -7 -40 0 -66 39 -98 61 -50 19 43 -26 118
-54 90z"/>
<path d="M3692 6778 c-30 -30 11 -114 42 -88 16 13 28 64 20 85 -7 18 -45 20
-62 3z"/>
<path d="M4016 4228 c12 -106 29 -226 38 -267 8 -40 13 -77 11 -81 -8 -13 6
-40 20 -40 32 0 33 67 1 231 -13 68 -29 161 -35 207 -11 84 -27 133 -47 139
-7 2 -3 -61 12 -189z"/>
<path d="M4105 3570 c4 -41 8 -104 10 -140 2 -74 26 -162 45 -168 10 -4 11 22
7 119 -5 125 -22 207 -52 244 -15 19 -16 15 -10 -55z"/>
<path d="M1110 9115 c0 -8 7 -15 15 -15 8 0 15 7 15 15 0 8 -7 15 -15 15 -8 0
-15 -7 -15 -15z"/>
<path d="M1091 8936 c-13 -16 -5 -46 13 -46 7 0 21 6 31 14 16 12 17 16 6 30
-16 20 -35 20 -50 2z"/>
<path d="M1020 8645 c-15 -18 -5 -35 23 -35 31 0 51 15 44 34 -8 20 -50 21
-67 1z"/>
<path d="M1134 8195 c-8 -19 3 -35 26 -35 19 0 30 17 23 38 -6 17 -42 15 -49
-3z"/>
<path d="M2030 8176 c-18 -18 -11 -36 17 -47 31 -12 73 2 73 24 0 18 -75 38
-90 23z"/>
<path d="M1151 8026 c-14 -16 -4 -46 14 -46 29 0 45 13 45 36 0 19 -5 24 -24
24 -13 0 -29 -6 -35 -14z"/>
<path d="M2066 7582 c-14 -14 -4 -40 20 -51 39 -17 114 -26 114 -13 0 11 -39
52 -49 52 -3 0 -23 4 -43 9 -20 5 -39 6 -42 3z"/>
<path d="M2070 7417 c0 -23 39 -47 77 -47 70 0 46 46 -30 56 -39 6 -47 4 -47
-9z"/>
<path d="M2112 7328 c-30 -30 11 -83 59 -76 34 5 31 20 -10 55 -29 25 -40 30
-49 21z"/>
<path d="M1421 6921 c-25 -25 -27 -39 -5 -48 9 -3 25 3 37 16 20 19 20 22 5
37 -15 15 -18 14 -37 -5z"/>
<path d="M1413 6728 c-29 -14 -35 -34 -16 -49 20 -17 68 8 68 36 0 23 -21 28
-52 13z"/>
<path d="M2194 6335 c-10 -25 10 -39 36 -25 26 14 22 34 -8 38 -13 2 -25 -3
-28 -13z"/>
<path d="M2370 6145 c0 -8 9 -19 20 -25 16 -9 22 -8 26 4 3 8 3 20 -1 26 -9
15 -45 12 -45 -5z"/>
<path d="M1792 5468 c-13 -13 2 -38 24 -38 20 0 27 19 14 35 -15 18 -22 19
-38 3z"/>
<path d="M1788 4989 c-35 -20 -9 -59 40 -59 25 0 56 35 49 55 -7 17 -62 20
-89 4z"/>
<path d="M1877 4473 c-4 -3 -7 -15 -7 -25 0 -14 6 -19 23 -16 29 4 38 48 9 48
-10 0 -22 -3 -25 -7z"/>
<path d="M2045 4460 c-4 -7 -3 -16 3 -22 14 -14 45 -2 40 15 -6 16 -34 21 -43
7z"/>
<path d="M1964 4025 c-4 -8 -3 -23 1 -32 6 -17 7 -17 21 1 8 11 14 26 14 33 0
18 -29 16 -36 -2z"/>
<path d="M2062 3577 c-27 -29 -27 -34 -3 -47 25 -13 46 -5 58 23 22 48 -17 65
-55 24z"/>
<path d="M2098 3390 c-25 -25 -28 -33 -18 -45 7 -8 20 -15 29 -15 24 0 61 42
61 68 0 32 -35 28 -72 -8z"/>
<path d="M2216 3211 c-14 -15 -14 -20 -3 -30 17 -13 43 -6 51 16 14 34 -20 45
-48 14z"/>
<path d="M2216 3063 c-4 -9 -3 -20 2 -25 14 -14 42 2 42 23 0 24 -35 26 -44 2z"/>
</g>
</svg>
